# xmcd
#
# Track frame offsets: 
#        150
#        8971
#        32620
#        56742
#        86070
#        114265
#        138641
#        164216
#        188192
#        207146
#        240145
#        267695
#
# Disc length: 3684 seconds
#
# Revision: 0
# Processed by: cddbd v1.5.2PL0 Copyright (c) Steve Scherf et al.
# Submitted via: ExactAudioCopyFreeDBPlugin 1.0
#
DISCID=a80e620c
DTITLE=Various Artist - Tinh khuc Phu Quang 14
DYEAR=1900
DGENRE=
TTITLE0=My Hanh - Thu cam 
TTITLE1=Hang Nga - Romance 2
TTITLE2=Quang Ly - Heo May
TTITLE3=Tan Minh - Romance 4
TTITLE4=My Hanh - Got thu buon
TTITLE5=Phuong Anh - Co mot ngay
TTITLE6=Tan Minh - Mo ve noi xa lam
TTITLE7=My Hanh - Em oi Hanoi pho
TTITLE8=Kasim Hoang Vu - Co 1 vai dieu anh muon noi voi em
TTITLE9=Phuong Anh - Khoang khac
TTITLE10=Tan Minh - Pho cu cua toi
TTITLE11=tt - uu
EXTD=
EXTT0=
EXTT1=
EXTT2=
EXTT3=
EXTT4=
EXTT5=
EXTT6=
EXTT7=
EXTT8=
EXTT9=
EXTT10=
EXTT11=
PLAYORDER=
